<svg xmlns="http://www.w3.org/2000/svg" xml:space="preserve" x="0px" y="0px" style="enable-background:new 0 0 226.8 245.5" viewBox="0 0 226.8 245.5"><path fill="#009BE6" d="M132 99.9v23.8c0 7.2-7.5 13.1-16.7 13.1s-16.7-5.9-16.7-13.1V0H82.3v123.7c0 12.9 10.6 23.7 24.9 26.7v95h16.4v-95c14.3-3 24.9-13.9 24.9-26.7V0H132v99.9zM22.5 0v16.2h27.2V217.9c0 7.7-7.5 13.9-16.7 13.9s-16.7-6.2-16.7-13.9v-72.1H0v72.1c0 15.2 14.8 27.6 33.1 27.6s33.1-12.3 33.1-27.6V0H22.5zM226.5 22.7c0-6.5-3.3-22.7-20.8-22.7-8.2 0-18 4.2-26.1 11.1V0h-16.4v245.5h16.4v-96.3c42.2 0 47.2-19.7 47.2-25.5v-101h-.3zm-16.1 20.1v76.9c0 5.6-6.2 13.3-30.8 13.3V42.8c0-15.9 15.4-28.7 23.9-28.7 5 0 6.5 4.5 6.9 11.4.3 4.7 0 10.7 0 17.3z" class="st0"/></svg>